<?xml version="1.0" encoding="utf-8"?>
<!-- Generator: Adobe Illustrator 19.2.1, SVG Export Plug-In . SVG Version: 6.00 Build 0)  -->
<svg version="1.1" id="Layer_1" xmlns="http://www.w3.org/2000/svg" xmlns:xlink="http://www.w3.org/1999/xlink" x="0px" y="0px"
	 viewBox="0 0 28.9 28.9" style="enable-background:new 0 0 28.9 28.9;" xml:space="preserve">
<style type="text/css">
	.st0{fill:#A9AFD5;}
</style>
<g>
	<path class="st0" d="M16.6,5.8v4.7c0,0.4,0,0.7,0.1,0.9c0.1,0.3,0.3,0.4,0.7,0.4c0.4,0,0.8-0.2,1.2-0.7v0.7h1.1V5.8h-1.1v4.5
		c-0.2,0.3-0.5,0.5-0.7,0.5c-0.1,0-0.2-0.1-0.2-0.3c0,0,0-0.2,0-0.4V5.8H16.6z M16.6,5.8"/>
	<path class="st0" d="M14.2,11.8c0.5,0,1-0.2,1.3-0.6c0.2-0.3,0.3-0.8,0.3-1.4V7.7c0-0.6-0.1-1.1-0.3-1.4c-0.3-0.4-0.7-0.6-1.3-0.6
		c-0.5,0-0.9,0.2-1.2,0.6c-0.2,0.3-0.3,0.8-0.3,1.4v2.1c0,0.6,0.1,1.1,0.3,1.4C13.2,11.6,13.7,11.8,14.2,11.8L14.2,11.8z M13.7,7.5
		c0-0.5,0.2-0.8,0.5-0.8c0.3,0,0.5,0.3,0.5,0.8V10c0,0.6-0.2,0.8-0.5,0.8c-0.3,0-0.5-0.3-0.5-0.8V7.5z M13.7,7.5"/>
	<path class="st0" d="M11.2,11.7V8.5l1.4-4.7h-1.2l-0.8,3.1L9.7,3.8H8.5C8.7,4.5,8.9,5.2,9.2,6C9.6,7.1,9.9,7.9,10,8.5v3.2H11.2
		L11.2,11.7z M11.2,11.7"/>
	<path class="st0" d="M22.2,13.6c-0.4-0.3-0.8-0.5-1.2-0.6c-1.5-0.2-3.7-0.2-6.6-0.2c-2.9,0-5.1,0.1-6.6,0.2
		c-0.5,0.1-0.9,0.2-1.2,0.6c-0.3,0.3-0.6,0.7-0.7,1.2c-0.2,0.9-0.3,2.3-0.3,4.2c0,1.9,0.1,3.3,0.3,4.2C6,23.6,6.3,24,6.6,24.3
		c0.4,0.3,0.8,0.5,1.2,0.5c1.5,0.2,3.7,0.2,6.6,0.2c2.9,0,5.1-0.1,6.6-0.2c0.5,0,0.9-0.2,1.2-0.5c0.3-0.3,0.6-0.7,0.7-1.2
		c0.2-0.9,0.3-2.3,0.3-4.2c0-1.9-0.1-3.3-0.3-4.2C22.8,14.3,22.6,13.9,22.2,13.6L22.2,13.6z M10.7,16H9.4v6.8H8.2V16H7v-1.1h3.7V16z
		 M13.9,22.7h-1.1v-0.6c-0.4,0.5-0.8,0.7-1.2,0.7c-0.4,0-0.6-0.1-0.7-0.4c-0.1-0.2-0.1-0.5-0.1-0.9v-4.6h1.1v4.3c0,0.3,0,0.4,0,0.4
		c0,0.2,0.1,0.3,0.3,0.3c0.2,0,0.4-0.2,0.7-0.5v-4.5h1.1V22.7z M17.9,21c0,0.6,0,1-0.1,1.2c-0.1,0.4-0.4,0.7-0.8,0.7
		c-0.4,0-0.7-0.2-1.1-0.7v0.6h-1.1v-7.9h1.1v2.6c0.3-0.4,0.7-0.6,1.1-0.6c0.4,0,0.7,0.2,0.8,0.7c0.1,0.2,0.1,0.6,0.1,1.2V21z
		 M21.9,20h-2.1v1c0,0.5,0.2,0.8,0.5,0.8c0.3,0,0.4-0.1,0.5-0.4c0-0.1,0-0.3,0-0.7h1.1v0.2c0,0.4,0,0.6,0,0.7c0,0.2-0.1,0.4-0.3,0.6
		c-0.3,0.4-0.7,0.6-1.3,0.6c-0.5,0-1-0.2-1.3-0.6c-0.2-0.3-0.3-0.8-0.3-1.4v-2.1c0-0.6,0.1-1.1,0.3-1.4c0.3-0.4,0.7-0.6,1.3-0.6
		c0.5,0,0.9,0.2,1.3,0.6c0.2,0.3,0.3,0.8,0.3,1.4V20z M21.9,20"/>
	<path class="st0" d="M20.3,17.8c-0.4,0-0.5,0.3-0.5,0.8v0.5h1.1v-0.5C20.9,18,20.7,17.8,20.3,17.8L20.3,17.8z M20.3,17.8"/>
	<path class="st0" d="M16.4,17.8c-0.2,0-0.4,0.1-0.5,0.3v3.6c0.2,0.2,0.4,0.3,0.5,0.3c0.3,0,0.5-0.3,0.5-0.8v-2.5
		C16.8,18,16.7,17.8,16.4,17.8L16.4,17.8z M16.4,17.8"/>
</g>
</svg>
