<?xml version="1.0" encoding="UTF-8"?>
<svg xmlns="http://www.w3.org/2000/svg" xmlns:xlink="http://www.w3.org/1999/xlink" viewBox="0 0 48 48" width="48px" height="48px">
<g id="surface18685191">
<path style="fill-rule:nonzero;fill:rgb(100%,100%,100%);fill-opacity:1;stroke-width:10;stroke-linecap:butt;stroke-linejoin:round;stroke:rgb(80.000001%,80.000001%,80.000001%);stroke-opacity:1;stroke-miterlimit:10;" d="M 140.028169 32.343317 C 149.612374 41.882944 154.085002 55.523718 154.085002 75.256778 L 154.085002 86.000003 C 154.085002 105.733062 149.612374 119.358978 140.147043 128.809449 C 124.232806 143.326919 95.450474 143.326919 86.000003 143.326919 C 82.017729 143.326919 78.035454 143.208045 74.186913 142.970297 L 72.448383 142.851423 L 71.289363 144.159035 C 59.788318 157.041989 57.4257 159.597777 57.098797 159.92468 C 55.761466 161.113419 55.048223 161.247152 54.617305 161.247152 C 54.394417 161.247152 53.75547 161.247152 53.75547 159.003408 L 53.75547 139.924154 L 51.199682 139.151474 C 43.249993 136.744279 36.74165 133.267219 31.971836 128.913464 C 22.387632 119.373837 17.915003 105.733062 17.915003 86.000003 L 17.915003 75.256778 C 17.915003 55.523718 22.387632 41.882944 31.852962 32.447332 C 47.7672 17.915003 76.549531 17.915003 86.000003 17.915003 C 95.450474 17.915003 124.232806 17.915003 140.028169 32.343317 Z M 140.028169 32.343317 " transform="matrix(0.262884,0,0,0.262884,1.392,1.392)"/>
<path style="fill-rule:nonzero;fill:rgb(49.411765%,34.117648%,76.078433%);fill-opacity:1;stroke-width:10;stroke-linecap:butt;stroke-linejoin:round;stroke:rgb(80.000001%,80.000001%,80.000001%);stroke-opacity:1;stroke-miterlimit:10;" d="M 121.840469 107.174408 C 121.840469 109.477589 120.696309 112.479154 119.180667 114.514868 C 116.907205 117.57587 113.801625 120.770605 109.923366 121.63244 C 109.358715 121.751314 108.779205 121.810751 108.214554 121.840469 C 104.217421 121.944484 100.17571 120.399124 96.743227 118.705172 C 88.585509 114.67832 80.680398 109.358715 73.622263 103.563615 C 71.363659 101.706211 69.268508 99.685355 67.232793 97.605063 C 65.137641 95.569348 63.131645 93.474196 61.274241 91.215593 C 55.479141 84.157458 50.159536 76.252347 46.132684 68.079769 C 44.423872 64.617568 42.833935 60.53128 42.997386 56.489569 C 43.027105 55.969495 43.086542 55.434563 43.205415 54.91449 C 44.067251 51.03623 47.261986 47.930651 50.322987 45.642329 C 52.358702 44.126688 55.360267 42.997386 57.648589 42.997386 C 59.015638 42.997386 60.308391 43.621474 61.437693 44.973664 C 64.795879 48.941079 65.806307 50.783624 69.105056 56.281539 C 70.486965 58.569861 71.660844 62.002343 71.660844 63.844888 C 71.660844 65.093064 70.650416 66.593846 69.744003 67.500259 C 67.381385 69.862877 64.498694 70.680135 64.498694 74.796142 C 64.498694 78.837853 68.599842 85.881129 73.904588 90.933268 C 78.956727 96.223154 86.000003 100.339161 90.026854 100.339161 C 94.157721 100.339161 94.915542 97.397033 97.27816 95.034416 C 98.184573 94.128002 99.685355 93.162152 100.933531 93.162152 C 102.776075 93.162152 106.253135 94.350891 108.556316 95.71794 C 114.039373 99.031549 115.881918 100.041977 119.864192 103.400163 C 121.216382 104.529465 121.82561 105.822218 121.840469 107.174408 Z M 121.840469 86.000003 C 119.849332 86.000003 118.244535 84.395206 118.244535 82.418928 L 118.244535 78.837853 C 118.244535 61.051353 103.786503 46.578461 86.000003 46.578461 C 84.023725 46.578461 82.418928 44.973664 82.418928 42.997386 C 82.418928 41.021108 84.023725 39.416311 86.000003 39.416311 C 107.739059 39.416311 125.421544 57.098797 125.421544 78.837853 L 125.421544 82.418928 C 125.421544 84.395206 123.816747 86.000003 121.840469 86.000003 Z M 99.819088 78.837853 C 98.22915 78.837853 96.772946 77.767988 96.356887 76.148332 C 95.376178 72.388946 92.43405 69.446819 88.689524 68.480968 C 86.772683 67.975755 85.613663 66.029195 86.118877 64.112354 C 86.609231 62.195513 88.555791 61.051353 90.487491 61.541707 C 96.743227 63.161364 101.661633 68.06491 103.296148 74.350365 C 103.786503 76.267206 102.642342 78.213765 100.725501 78.718979 C 100.428317 78.793275 100.116273 78.837853 99.819088 78.837853 Z M 99.819088 78.837853 " transform="matrix(0.262884,0,0,0.262884,1.392,1.392)"/>
<path style="fill-rule:nonzero;fill:rgb(49.411765%,34.117648%,76.078433%);fill-opacity:1;stroke-width:10;stroke-linecap:butt;stroke-linejoin:round;stroke:rgb(80.000001%,80.000001%,80.000001%);stroke-opacity:1;stroke-miterlimit:10;" d="M 111.082386 82.418928 C 109.106108 82.418928 107.501311 80.814131 107.501311 78.837853 C 107.501311 67.411104 98.556053 57.990351 87.159023 57.381122 C 85.182745 57.277108 83.667103 55.598015 83.771118 53.621737 C 83.875133 51.645459 85.583944 50.114958 87.530504 50.233832 C 102.746357 51.03623 114.663461 63.592281 114.663461 78.837853 C 114.663461 80.814131 113.058664 82.418928 111.082386 82.418928 Z M 111.082386 82.418928 " transform="matrix(0.262884,0,0,0.262884,1.392,1.392)"/>
<path style="fill-rule:nonzero;fill:rgb(49.411765%,34.117648%,76.078433%);fill-opacity:1;stroke-width:10;stroke-linecap:butt;stroke-linejoin:round;stroke:rgb(80.000001%,80.000001%,80.000001%);stroke-opacity:1;stroke-miterlimit:10;" d="M 142.554238 29.802388 C 153.371759 40.575331 157.666077 55.68717 157.666077 75.241919 C 157.666077 76.876434 157.666077 78.674401 157.651218 80.620961 C 157.666077 82.56752 157.666077 84.380346 157.666077 86.000003 C 157.666077 105.554752 153.371759 120.681449 142.554238 131.454392 C 127.24923 145.436929 102.122269 146.922853 86.000003 146.922853 C 82.37435 146.922853 78.273202 146.818838 73.964025 146.536513 C 66.71272 154.664512 60.055784 162.079269 59.476274 162.599342 C 57.945773 163.966391 56.415272 164.828227 54.647024 164.828227 L 54.617305 164.828227 C 53.918921 164.828227 50.159536 164.724212 50.159536 159.003408 L 50.159536 142.583957 C 42.53675 140.265917 35.270586 136.773997 29.445767 131.454392 C 18.613387 120.66659 14.333928 105.554752 14.333928 86.000003 C 14.333928 84.380346 14.319069 82.56752 14.333928 80.620961 C 14.319069 78.674401 14.333928 76.876434 14.333928 75.256778 C 14.333928 55.68717 18.613387 40.575331 29.445767 29.802388 C 44.750775 15.819851 69.877736 14.333928 86.000003 14.333928 C 102.122269 14.333928 127.24923 15.819851 142.554238 29.802388 Z M 146.907993 80.695257 C 146.922853 79.120178 146.907993 77.753129 146.907993 76.490094 L 146.907993 75.256778 C 146.907993 57.663448 143.178326 45.686907 135.139482 37.588626 C 121.231241 25.077153 94.737231 25.077153 86.000003 25.077153 C 77.262774 25.077153 50.768764 25.077153 36.860523 37.588626 C 28.821679 45.686907 25.077153 57.663448 25.077153 75.256778 L 25.077153 76.490094 C 25.077153 77.753129 25.077153 79.120178 25.092012 80.546665 C 25.077153 82.136602 25.077153 83.488793 25.077153 84.751827 L 25.077153 86.000003 C 25.077153 103.578474 28.821679 115.555014 36.860523 123.668155 C 42.34358 128.60142 49.788055 131.558407 57.336545 133.371233 L 57.336545 154.382187 C 57.336545 154.382187 72.52268 137.398085 73.934307 135.808147 C 79.016164 136.164769 83.3402 136.164769 86.000003 136.164769 C 94.737231 136.164769 121.231241 136.164769 135.139482 123.668155 C 143.178326 115.555014 146.922853 103.578474 146.922853 86.000003 L 146.922853 84.751827 C 146.922853 83.488793 146.922853 82.136602 146.907993 80.695257 Z M 146.907993 80.695257 " transform="matrix(0.262884,0,0,0.262884,1.392,1.392)"/>
<path style=" stroke:none;fill-rule:nonzero;fill:rgb(100%,100%,100%);fill-opacity:1;" d="M 24 6.101562 C 21.515625 6.101562 13.949219 6.101562 9.765625 9.921875 C 7.277344 12.402344 6.101562 15.988281 6.101562 21.175781 L 6.101562 24 C 6.101562 29.1875 7.277344 32.773438 9.796875 35.28125 C 11.050781 36.425781 12.761719 37.339844 14.851562 37.972656 L 15.523438 38.175781 L 15.523438 43.191406 C 15.523438 43.78125 15.691406 43.78125 15.75 43.78125 C 15.863281 43.78125 16.050781 43.746094 16.402344 43.433594 C 16.488281 43.347656 17.109375 42.675781 20.132812 39.289062 L 20.4375 38.945312 L 20.894531 38.976562 C 21.90625 39.039062 22.953125 39.070312 24 39.070312 C 26.484375 39.070312 34.050781 39.070312 38.234375 35.253906 C 40.722656 32.769531 41.898438 29.1875 41.898438 24 L 41.898438 21.175781 C 41.898438 15.988281 40.722656 12.402344 38.203125 9.894531 C 34.050781 6.101562 26.484375 6.101562 24 6.101562 Z M 24 6.101562 "/>
<path style=" stroke:none;fill-rule:nonzero;fill:rgb(66.274512%,68.627453%,83.529413%);fill-opacity:1;" d="M 32.902344 28.574219 C 31.855469 27.691406 31.371094 27.425781 29.929688 26.554688 C 29.324219 26.195312 28.410156 25.882812 27.925781 25.882812 C 27.597656 25.882812 27.203125 26.136719 26.964844 26.375 C 26.34375 26.996094 26.144531 27.769531 25.058594 27.769531 C 24 27.769531 22.148438 26.6875 20.820312 25.296875 C 19.425781 23.96875 18.347656 22.117188 18.347656 21.054688 C 18.347656 19.972656 19.105469 19.757812 19.726562 19.136719 C 19.964844 18.898438 20.230469 18.503906 20.230469 18.175781 C 20.230469 17.691406 19.921875 16.789062 19.558594 16.1875 C 18.691406 14.742188 18.425781 14.257812 17.542969 13.214844 C 17.246094 12.859375 16.90625 12.695312 16.546875 12.695312 C 15.945312 12.695312 15.15625 12.992188 14.621094 13.390625 C 13.816406 13.992188 12.976562 14.808594 12.75 15.828125 C 12.71875 15.964844 12.703125 16.105469 12.695312 16.242188 C 12.652344 17.304688 13.070312 18.378906 13.519531 19.289062 C 14.578125 21.4375 15.976562 23.515625 17.5 25.371094 C 17.988281 25.964844 18.515625 26.515625 19.066406 27.050781 C 19.601562 27.597656 20.152344 28.128906 20.746094 28.617188 C 22.601562 30.140625 24.679688 31.539062 26.824219 32.597656 C 27.726562 33.042969 28.789062 33.449219 29.839844 33.421875 C 29.988281 33.414062 30.140625 33.398438 30.289062 33.367188 C 31.308594 33.140625 32.125 32.300781 32.722656 31.496094 C 33.121094 30.960938 33.421875 30.171875 33.421875 29.566406 C 33.417969 29.210938 33.257812 28.871094 32.902344 28.574219 Z M 33.421875 24 C 32.898438 24 32.476562 23.578125 32.476562 23.058594 L 32.476562 22.117188 C 32.476562 17.441406 28.675781 13.636719 24 13.636719 C 23.480469 13.636719 23.058594 13.214844 23.058594 12.695312 C 23.058594 12.175781 23.480469 11.753906 24 11.753906 C 29.714844 11.753906 34.363281 16.402344 34.363281 22.117188 L 34.363281 23.058594 C 34.363281 23.578125 33.941406 24 33.421875 24 Z M 27.632812 22.117188 C 27.214844 22.117188 26.832031 21.835938 26.722656 21.410156 C 26.464844 20.421875 25.691406 19.648438 24.707031 19.394531 C 24.203125 19.261719 23.898438 18.75 24.03125 18.246094 C 24.160156 17.742188 24.671875 17.441406 25.179688 17.570312 C 26.824219 17.996094 28.117188 19.285156 28.546875 20.9375 C 28.675781 21.441406 28.375 21.953125 27.871094 22.085938 C 27.792969 22.105469 27.710938 22.117188 27.632812 22.117188 Z M 27.632812 22.117188 "/>
<path style=" stroke:none;fill-rule:nonzero;fill:rgb(66.274512%,68.627453%,83.529413%);fill-opacity:1;" d="M 30.59375 23.058594 C 30.074219 23.058594 29.652344 22.636719 29.652344 22.117188 C 29.652344 19.113281 27.300781 16.636719 24.304688 16.476562 C 23.785156 16.449219 23.386719 16.007812 23.414062 15.488281 C 23.441406 14.96875 23.890625 14.566406 24.402344 14.597656 C 28.402344 14.808594 31.535156 18.109375 31.535156 22.117188 C 31.535156 22.636719 31.113281 23.058594 30.59375 23.058594 Z M 30.59375 23.058594 "/>
<path style=" stroke:none;fill-rule:nonzero;fill:rgb(66.274512%,68.627453%,83.529413%);fill-opacity:1;" d="M 24 5.160156 C 19.761719 5.160156 13.15625 5.550781 9.132812 9.226562 C 6.285156 12.058594 5.160156 16.03125 5.160156 21.175781 C 5.160156 21.601562 5.15625 22.074219 5.160156 22.585938 C 5.15625 23.097656 5.160156 23.574219 5.160156 24 C 5.160156 29.140625 6.285156 33.113281 9.132812 35.949219 C 10.664062 37.347656 12.574219 38.265625 14.578125 38.875 L 14.578125 43.191406 C 14.578125 44.695312 15.566406 44.722656 15.75 44.722656 L 15.757812 44.722656 C 16.222656 44.722656 16.625 44.496094 17.027344 44.136719 C 17.179688 44 18.929688 42.050781 20.835938 39.914062 C 21.96875 39.988281 23.046875 40.015625 24 40.015625 C 28.238281 40.015625 34.84375 39.625 38.867188 35.949219 C 41.710938 33.117188 42.839844 29.140625 42.839844 24 C 42.839844 23.574219 42.839844 23.097656 42.835938 22.585938 C 42.839844 22.074219 42.839844 21.601562 42.839844 21.171875 C 42.839844 16.03125 41.710938 12.058594 38.867188 9.226562 C 34.84375 5.550781 28.238281 5.160156 24 5.160156 Z M 40.015625 23.671875 L 40.015625 24 C 40.015625 28.621094 39.03125 31.769531 36.917969 33.902344 C 33.261719 37.1875 26.296875 37.1875 24 37.1875 C 23.300781 37.1875 22.164062 37.1875 20.828125 37.09375 C 20.457031 37.511719 16.464844 41.976562 16.464844 41.976562 L 16.464844 36.453125 C 14.480469 35.976562 12.523438 35.199219 11.082031 33.902344 C 8.96875 31.769531 7.984375 28.621094 7.984375 24 L 7.984375 23.671875 C 7.984375 23.339844 7.984375 22.984375 7.988281 22.566406 C 7.984375 22.191406 7.984375 21.832031 7.984375 21.5 L 7.984375 21.175781 C 7.984375 16.550781 8.96875 13.402344 11.082031 11.273438 C 14.738281 7.984375 21.703125 7.984375 24 7.984375 C 26.296875 7.984375 33.261719 7.984375 36.917969 11.273438 C 39.03125 13.402344 40.011719 16.550781 40.011719 21.175781 L 40.011719 21.5 C 40.011719 21.832031 40.015625 22.191406 40.011719 22.605469 C 40.015625 22.984375 40.015625 23.339844 40.015625 23.671875 Z M 40.015625 23.671875 "/>
</g>
</svg>
