<?xml version="1.0" encoding="utf-8"?>
<!-- Generator: Adobe Illustrator 23.0.1, SVG Export Plug-In . SVG Version: 6.00 Build 0)  -->
<svg version="1.1" id="Layer_1" xmlns="http://www.w3.org/2000/svg" xmlns:xlink="http://www.w3.org/1999/xlink" x="0px" y="0px"
	 viewBox="0 0 37.13 37.13" style="enable-background:new 0 0 37.13 37.13;" xml:space="preserve">
<style type="text/css">
	.st0{fill:#A8AED5;}
</style>
<path class="st0" d="M28.43,9.95c-0.07,0-0.15,0.01-0.23,0.04l-19.73,7.5c-0.56,0.21-0.54,1.01,0.02,1.2l4.58,1.55l2.76,5.52
	c0,0,0,0,0,0l0.01,0.01l0,0c0.05,0.1,0.15,0.17,0.27,0.17c0.07,0,0.13-0.02,0.19-0.07l2.58-2.19l-2.89-2.19l0.23,2.88l-2.07-4.3
	l11.03-6.62l-9.18,8.04l7.14,5.42c0.24,0.18,0.51,0.27,0.78,0.27c0.57,0,1.11-0.37,1.27-0.99l3.86-15.45
	C29.15,10.32,28.83,9.95,28.43,9.95z"/>
</svg>
